<svg xmlns="http://www.w3.org/2000/svg" width="1400" height="900" viewBox="0 0 1400 900">
  <defs><linearGradient id="gg" x1="0" y1="0" x2="1" y2="1"><stop offset="0%" stop-color="#7c3aed"/><stop offset="100%" stop-color="#2563eb"/></linearGradient></defs>
  <rect width="1400" height="900" fill="#ffffff"/>
  <rect x="160" y="120" width="1080" height="660" rx="22" fill="#ffffff" stroke="#e2e8f0" stroke-width="2"/>
  <rect x="200" y="160" width="1000" height="60" rx="12" fill="#f8fafc" stroke="#e2e8f0"/>
  <rect x="220" y="180" width="240" height="20" rx="10" fill="#c7d2fe"/>
  <g><rect x="200" y="240" width="720" height="70" rx="14" fill="#eef2ff"/><circle cx="226" cy="275" r="16" fill="#7c3aed"/><rect x="254" y="260" width="640" height="30" rx="8" fill="#c7d2fe"/></g>
  <g><rect x="200" y="330" width="880" height="70" rx="14" fill="#ecfeff"/><circle cx="226" cy="365" r="16" fill="#06b6d4"/><rect x="254" y="350" width="800" height="30" rx="8" fill="#a5f3fc"/></g>
  <g><rect x="200" y="420" width="720" height="70" rx="14" fill="#eef2ff"/><circle cx="226" cy="455" r="16" fill="#7c3aed"/><rect x="254" y="440" width="640" height="30" rx="8" fill="#c7d2fe"/></g>
  <rect x="200" y="650" width="1000" height="90" rx="14" fill="#ffffff" stroke="#e2e8f0"/>
  <rect x="220" y="680" width="760" height="30" rx="8" fill="#e2e8f0"/>
  <rect x="1000" y="680" width="180" height="30" rx="8" fill="url(#gg)"/>
</svg>