<svg xmlns="http://www.w3.org/2000/svg" width="1600" height="900" viewBox="0 0 1600 900">
  <defs>
    <linearGradient id="g1" x1="0" y1="0" x2="1" y2="1">
      <stop offset="0%" stop-color="#2563eb"/>
      <stop offset="100%" stop-color="#7c3aed"/>
    </linearGradient>
    <filter id="blur" x="-20%" y="-20%" width="140%" height="140%">
      <feGaussianBlur stdDeviation="80"/>
    </filter>
  </defs>
  <rect width="1600" height="900" fill="#ffffff"/>
  <circle cx="1200" cy="200" r="280" fill="url(#g1)" opacity="0.25" filter="url(#blur)"/>
  <circle cx="400" cy="700" r="260" fill="url(#g1)" opacity="0.20" filter="url(#blur)"/>
  <g>
    <rect x="180" y="220" rx="24" ry="24" width="1240" height="460" fill="#ffffff" stroke="#e2e8f0" stroke-width="2"/>
    <rect x="220" y="260" width="300" height="12" rx="6" fill="#a3bffa"/>
    <rect x="220" y="286" width="240" height="10" rx="5" fill="#c7d2fe"/>
    <rect x="220" y="332" width="1160" height="280" rx="14" fill="#f8fafc" stroke="#e2e8f0"/>
    <rect x="240" y="356" width="320" height="18" rx="9" fill="#93c5fd"/>
    <rect x="240" y="386" width="260" height="14" rx="7" fill="#bfdbfe"/>
    <rect x="240" y="414" width="600" height="14" rx="7" fill="#e2e8f0"/>
    <rect x="240" y="442" width="540" height="14" rx="7" fill="#e2e8f0"/>
    <rect x="240" y="470" width="420" height="14" rx="7" fill="#e2e8f0"/>
    <rect x="240" y="498" width="380" height="14" rx="7" fill="#e2e8f0"/>
    <rect x="240" y="526" width="260" height="14" rx="7" fill="#e2e8f0"/>
    <rect x="900" y="356" width="440" height="160" rx="12" fill="#ffffff" stroke="#e2e8f0"/>
    <circle cx="940" cy="396" r="18" fill="#22c55e"/>
    <rect x="970" y="384" width="280" height="14" rx="7" fill="#d9f99d"/>
    <rect x="970" y="408" width="240" height="12" rx="6" fill="#fef9c3"/>
    <rect x="920" y="536" width="400" height="56" rx="12" fill="url(#g1)"/>
  </g>
</svg>